<?xml version="1.0" encoding="utf-8"?>
<!-- Generator: Adobe Illustrator 16.0.0, SVG Export Plug-In . SVG Version: 6.00 Build 0)  -->
<!DOCTYPE svg PUBLIC "-//W3C//DTD SVG 1.1//EN" "http://www.w3.org/Graphics/SVG/1.1/DTD/svg11.dtd">
<svg version="1.1" id="Layer_1" xmlns="http://www.w3.org/2000/svg" xmlns:xlink="http://www.w3.org/1999/xlink" x="0px" y="0px"
	 width="80px" height="40px" viewBox="0 0 80 40" enable-background="new 0 0 80 40" xml:space="preserve">
<polygon fill="#F2E89D" stroke="#F2E89D" stroke-miterlimit="10" points="65.451,14.278 77.611,16.086 68.779,24.638 70.816,36.769 
	59.953,31.007 49.049,36.694 51.17,24.581 42.389,15.967 54.564,14.24 60.047,3.231 "/>
<linearGradient id="SVGID_1_" gradientUnits="userSpaceOnUse" x1="62.6934" y1="36.8838" x2="62.6934" y2="17.2666" gradientTransform="matrix(1 -0.0064 0.0064 1 -0.1279 0.3335)">
	<stop  offset="0" style="stop-color:#FFF200;stop-opacity:0"/>
	<stop  offset="1" style="stop-color:#D2AB56"/>
</linearGradient>
<path fill="url(#SVGID_1_)" stroke="#F2E89D" stroke-miterlimit="10" d="M72.355,17.138c-8.795,0.056-16.561,2.869-21.434,7.148
	l0.297,0.291l-2.121,12.117L60,31.007l10.867,5.758l-2.039-12.127l7.549-7.308C75.061,17.209,73.727,17.129,72.355,17.138z"/>
<polygon fill="#CCCCCC" stroke="#B3B4B4" stroke-miterlimit="10" points="25.441,14.257 37.609,16 28.825,24.6 30.927,36.719 
	20.031,31.014 9.157,36.76 11.214,24.637 2.391,16.069 14.554,14.278 19.978,3.24 "/>
</svg>
