<?xml version="1.0" encoding="utf-8"?>
<!-- Generator: Adobe Illustrator 16.0.0, SVG Export Plug-In . SVG Version: 6.00 Build 0)  -->
<!DOCTYPE svg PUBLIC "-//W3C//DTD SVG 1.1//EN" "http://www.w3.org/Graphics/SVG/1.1/DTD/svg11.dtd">
<svg version="1.1" id="Layer_1" xmlns="http://www.w3.org/2000/svg" xmlns:xlink="http://www.w3.org/1999/xlink" x="0px" y="0px"
	 width="512px" height="512px" viewBox="0 0 512 512" enable-background="new 0 0 512 512" xml:space="preserve">
<path fill="#FFFFFF" d="M379.077,96c-33.99,0-61.539,27.548-61.539,61.539c0,9.183,2.02,17.908,5.625,25.721l55.914,109.663
	l55.913-109.664c3.605-7.812,5.625-16.538,5.625-25.721C440.615,123.548,413.067,96,379.077,96z M379.077,194.461
	c-20.385,0-36.923-16.539-36.923-36.923c0-20.385,16.538-36.923,36.923-36.923S416,137.154,416,157.539
	C416,177.923,399.462,194.461,379.077,194.461z M397.49,310.976l22.403,44.784l-56.802,28.39l-19.039-95.241l3.197-3.196
	l0.337-0.337l-11.73-23.077l-6.011,6.01L256,219.077l-73.846,49.23l-49.231-49.23L59.077,366.769L157.539,416L256,366.769
	L354.462,416l98.461-49.231l-41.538-83.052L397.49,310.976z M148.884,384.149l-56.779-28.39l47.549-95.145l25.096,25.097
	l3.197,3.196L148.884,384.149z M243.692,345.399l-68.846,34.423l17.788-88.918l3.173-2.116l47.885-31.923V345.399z M268.308,345.399
	v-88.534l47.885,31.923l3.149,2.116l17.788,88.918L268.308,345.399z"/>
</svg>
