<?xml version="1.0" encoding="utf-8"?>
<!-- Generator: Adobe Illustrator 16.0.0, SVG Export Plug-In . SVG Version: 6.00 Build 0)  -->
<!DOCTYPE svg PUBLIC "-//W3C//DTD SVG 1.1//EN" "http://www.w3.org/Graphics/SVG/1.1/DTD/svg11.dtd">
<svg version="1.1" id="Layer_1" xmlns="http://www.w3.org/2000/svg" xmlns:xlink="http://www.w3.org/1999/xlink" x="0px" y="0px"
	 width="128px" height="128px" viewBox="0 0 128 128" enable-background="new 0 0 128 128" xml:space="preserve">
<path fill="#FFFFFF" d="M110,108.5H20v-90h90V108.5z M27.258,101.242h75.484V25.758H27.258V101.242z"/>
<path fill="#FFFFFF" d="M49.895,24.307l10.887,10.887l-6.963,6.963c-0.623,0.505-0.719,1.419-0.214,2.042
	c0.504,0.623,1.419,0.719,2.042,0.214c0.079-0.063,0.15-0.136,0.214-0.214l6.963-6.963l29.169,29.169l-36.313,36.29h4.128
	l34.227-34.25l10.161,10.161v-4.082l-8.121-8.12l8.121-8.121V54.2L94.034,64.362L64.865,35.192l10.888-10.887H71.67l-8.847,8.846
	l-8.846-8.846L49.895,24.307L49.895,24.307z"/>
<path fill="#FFFFFF" d="M53.388,54.791c-6.387,0-11.613,5.226-11.613,11.613c0,8.71,11.613,23.226,11.613,23.226
	s11.613-14.516,11.613-23.226C65.001,60.017,59.775,54.791,53.388,54.791z M53.388,72.21c-3.193,0-5.806-2.613-5.806-5.807
	s2.613-5.806,5.806-5.806c3.194,0,5.807,2.613,5.807,5.806S56.582,72.21,53.388,72.21z"/>
</svg>
