<?xml version="1.0" encoding="utf-8"?>
<!-- Generator: Adobe Illustrator 16.0.0, SVG Export Plug-In . SVG Version: 6.00 Build 0)  -->
<!DOCTYPE svg PUBLIC "-//W3C//DTD SVG 1.1//EN" "http://www.w3.org/Graphics/SVG/1.1/DTD/svg11.dtd">
<svg version="1.1" id="Layer_1" xmlns="http://www.w3.org/2000/svg" xmlns:xlink="http://www.w3.org/1999/xlink" x="0px" y="0px"
	 width="96px" height="100px" viewBox="0 0 96 100" enable-background="new 0 0 96 100" xml:space="preserve">
<g>
	<path fill="#B3B3B3" d="M80.906,10.077H17.093c-3.478,0-6.288,2.936-6.288,6.561v75.475c0,3.625,2.811,6.562,6.288,6.562h63.813
		c3.477,0,6.289-2.938,6.289-6.562V16.638C87.195,13.014,84.383,10.077,80.906,10.077z M81.661,89.086c0,0,0.173,1.517-0.537,2.304
		c-0.722,0.799-2.056,0.69-2.056,0.69L18.36,92.112c0,0-0.856-0.014-1.509-0.762c-0.564-0.646-0.557-2.016-0.557-2.016l0.022-70.429
		c0,0,0-1.043,0.611-1.6c0.659-0.602,1.612-0.653,1.612-0.653H79.26c0,0,1.151-0.032,1.689,0.519
		c0.731,0.749,0.709,1.536,0.709,1.536v70.378H81.661z"/>
	<g>
		<path fill="#B3B3B3" d="M61.117,6.741c0-1.458-0.135-3.888-1.324-3.888H38.247c-1.113,0-1.38,2.44-1.362,3.883L61.117,6.741z"/>
		<path fill="#B3B3B3" d="M66.311,11.791c0-2.084-0.19-5.556-1.891-5.556H33.64c-1.592,0-1.972,3.488-1.947,5.549L66.311,11.791z"/>
	</g>
	<rect x="34.858" y="37.305" fill="#B3B3B3" width="35.439" height="3.149"/>
	<path fill="#B3B3B3" d="M23.711,35.156v7.874h7.876v-7.874H23.711z M24.891,41.839v-5.512h5.514v5.512H24.891z"/>
	<rect x="34.858" y="52.654" fill="#B3B3B3" width="35.439" height="3.149"/>
	<path fill="#B3B3B3" d="M23.711,50.506v7.874h7.876v-7.874H23.711z M24.891,57.188v-5.512h5.514v5.512H24.891z"/>
	<rect x="34.858" y="67.87" fill="#B3B3B3" width="35.439" height="3.149"/>
	<path fill="#B3B3B3" d="M23.711,65.722v7.874h7.876v-7.874H23.711z M24.891,72.404v-5.512h5.514v5.512H24.891z"/>
</g>
<rect x="43.004" y="1.324" fill="#B3B3B3" width="12" height="4.918"/>
</svg>
