<?xml version="1.0" encoding="utf-8"?>
<!-- Generator: Adobe Illustrator 16.0.0, SVG Export Plug-In . SVG Version: 6.00 Build 0)  -->
<!DOCTYPE svg PUBLIC "-//W3C//DTD SVG 1.1//EN" "http://www.w3.org/Graphics/SVG/1.1/DTD/svg11.dtd">
<svg version="1.1" id="Layer_1" xmlns="http://www.w3.org/2000/svg" xmlns:xlink="http://www.w3.org/1999/xlink" x="0px" y="0px"
	 width="128px" height="128px" viewBox="0 0 128 128" enable-background="new 0 0 128 128" xml:space="preserve">
<rect x="8" y="6.5" fill="none" stroke="#B3B3B3" stroke-width="10" stroke-miterlimit="10" width="114" height="114"/>
<path fill="#B3B3B3" d="M44.188,9.5l15,15l-9.594,9.594c-0.858,0.696-0.99,1.955-0.295,2.813c0.695,0.858,1.955,0.99,2.813,0.295
	c0.108-0.088,0.208-0.187,0.295-0.295l9.594-9.594l40.188,40.188l-50.031,50h5.688l47.156-47.188l14,14v-5.625L107.814,67.5
	l11.188-11.188v-5.625l-14,14L64.814,24.499l15-15h-5.625L62.001,21.687L49.813,9.499L44.188,9.5L44.188,9.5z"/>
<path fill="#B3B3B3" d="M49.001,51.5c-8.8,0-16,7.2-16,16c0,12,16,32,16,32s16-20,16-32C65.001,58.7,57.801,51.5,49.001,51.5z
	 M49.001,75.5c-4.4,0-8-3.6-8-8c0-4.4,3.6-8,8-8s8,3.6,8,8C57.001,71.9,53.401,75.5,49.001,75.5z"/>
</svg>
